<?xml version="1.0" encoding="utf-8"?>
<!-- Generator: Adobe Illustrator 18.1.1, SVG Export Plug-In . SVG Version: 6.00 Build 0)  -->
<svg version="1.1" id="Calque_1" xmlns="http://www.w3.org/2000/svg" xmlns:xlink="http://www.w3.org/1999/xlink" x="0px" y="0px"
	 viewBox="0 0 200 200" enable-background="new 0 0 200 200" xml:space="preserve">
<g>
	<g>
		<path fill="#FFFFFF" d="M39.7,40.3c-28.8-10.2-17.6,24.2-7.8,20.2c1.8-0.7,5.4-5.4,1.7-7.7c0,0-2-2-3.9,0.1c0,0-6-8.2,1.9-8.4
			c0,0,11.6-0.1,21.6,7.6c0.7-0.9,1.5-1.7,2.3-2.5C51.5,45.9,46.4,42.6,39.7,40.3z"/>
		<path fill="#FFFFFF" d="M55.3,8.2C24.5-9.7,29.9,32.1,42,29.7c2.3-0.5,7.4-5.1,3.6-8.4c0,0-1.8-2.7-4.5-0.8c0,0-5.1-10.7,4-9.2
			c0,0,21.6,3.9,30.2,24.6c1-0.5,2-0.9,2.9-1.3C74.9,25.6,68.2,15.7,55.3,8.2z"/>
	</g>
	<g>
		<path fill="#FFFFFF" d="M127.7,89.7c0.5,0.2,1,0.4,1.5,0.6c-0.1,0-0.2-0.1-0.2-0.1c12.6-22.9,48.1-53.6,47.9-28
			c-0.2,20.8-17.8,33.4-32.1,40.2c0.3,0.4,0.7,0.8,1,1.3c17.6-8,40.6-23.4,40.8-49.5C186.8,22.5,142.1,61.9,127.7,89.7z"/>
	</g>
	<path fill="#FFFFFF" d="M158.9,30.4c-9.7-22.5-26.9,4.7-35.1,32.7c0.2,0.7,0.3,1.4,0.4,2c0.2,1.4,0.4,2.8,0.4,4.2
		c0-0.2,0-0.4,0-0.6c6.9-22.7,20.8-44.2,28.7-25.9c1.2,2.8,2,5.6,2.4,8.4l6.6-5.1C162.2,41,161.2,35.7,158.9,30.4z"/>
	<path fill="#FFFFFF" d="M121.3,62.3c-1.3-7.7-7.8-30.8-31-27.9c-8.3,1-38.6,12.9-44.3,39.9c0.6,0.6,1.2,1.2,1.8,1.8
		c6.4,7,8.8,15.2,5.4,18.3c-1.5,1.4-3.9,1.5-6.7,0.6c0.5,2.2,1.2,4.5,2,6.9C64.9,148.6,128.3,103,121.3,62.3z M96.9,83
		c-8.3,9.7-18.8,14.3-23.4,10.3c-4.7-4-1.8-15.1,6.5-24.8C88.2,58.9,97.5,52,102.2,56C106.9,60,105.2,73.4,96.9,83z"/>
	<path fill="#FFFFFF" d="M153.2,123.9c-5.4-17.4-19.4-29.2-34.2-30.6c-7.5,14.5-21.4,26.4-34.9,30c-1.1,6.8-0.7,14.2,1.6,21.5
		c6.3,20.2,24.2,33,41.5,30.5c2.5,5.5,3.7,13.1-1,22c0,0,23.1-12.3,20.5-33.1C154.9,154.1,157.8,138.9,153.2,123.9z M87.5,144.3
		c-0.9-2.9-1.5-5.8-1.8-8.7c23.4-2.3,43-14.9,51.9-32.1c2.7,2.2,5.1,4.8,7.2,7.8c-9.1,18.9-31.1,32.5-57.1,33.5
		C87.6,144.7,87.5,144.5,87.5,144.3z M104.3,167.6c-3.4-2.3-6.5-5.2-9.2-8.7c26-1.7,47.7-16,55.9-35.5c0.1,0.4,0.3,0.7,0.4,1.1
		c1.6,5.3,2.3,10.6,2,15.7C143.6,155,125.5,165.5,104.3,167.6z"/>
	<path fill="#FFFFFF" d="M63.6,158.4v-5.8c-10.9-1.2-21.4-6.2-29.6-14.1c-8.5-8.2-13.9-18.9-15.4-30.3h-5.8
		c1.6,12.8,7.7,25,17.3,34.3C39.4,151.4,51.3,157,63.6,158.4z"/>
	<path fill="#FFFFFF" d="M63.6,145.5v-5.6c-7.8-0.9-15.4-4.5-21.2-10.2c-6-5.8-10-13.4-11.1-21.5h-5.6c1.3,9.5,5.9,18.5,13,25.3
		C45.6,140.2,54.5,144.4,63.6,145.5z"/>
	<path fill="#FFFFFF" d="M63.6,133.5v-5c-5-0.7-9.9-3-13.6-6.7c-3.8-3.7-6.4-8.5-7.2-13.6h-5c1,6.4,4.1,12.4,8.9,17
		C51.4,129.8,57.4,132.7,63.6,133.5z"/>
</g>
</svg>
